<mxfile host="app.diagrams.net" modified="2024-06-16T15:19:40.942Z" agent="Mozilla/5.0 (Windows NT 10.0; Win64; x64) AppleWebKit/537.36 (KHTML, like Gecko) Chrome/125.0.0.0 Safari/537.36" etag="ks4JfemFC9vPMwocOjcE" version="24.3.1" type="github">
  <diagram name="Page-1" id="gBuPnpiRrYP1-eBrUCZt">
    <mxGraphModel dx="1195" dy="3915" grid="1" gridSize="10" guides="1" tooltips="1" connect="1" arrows="1" fold="1" page="1" pageScale="1" pageWidth="4681" pageHeight="3300" math="0" shadow="0">
      <root>
        <mxCell id="0" />
        <mxCell id="1" parent="0" />
        <mxCell id="evfKNI3alcSAuEDwDKYb-1" value="11" style="ellipse;whiteSpace=wrap;html=1;aspect=fixed;fillColor=#FFF2CC;strokeColor=#000000;strokeWidth=2;" vertex="1" parent="1">
          <mxGeometry x="480" y="240" width="40" height="40" as="geometry" />
        </mxCell>
        <mxCell id="evfKNI3alcSAuEDwDKYb-2" value="13" style="ellipse;whiteSpace=wrap;html=1;aspect=fixed;fillColor=#FFF2CC;strokeColor=#000000;strokeWidth=2;" vertex="1" parent="1">
          <mxGeometry x="600" y="240" width="40" height="40" as="geometry" />
        </mxCell>
        <mxCell id="evfKNI3alcSAuEDwDKYb-3" value="5" style="ellipse;whiteSpace=wrap;html=1;aspect=fixed;fillColor=#FFF2CC;strokeColor=#000000;strokeWidth=2;" vertex="1" parent="1">
          <mxGeometry x="600" y="120" width="40" height="40" as="geometry" />
        </mxCell>
        <mxCell id="evfKNI3alcSAuEDwDKYb-4" value="1" style="ellipse;whiteSpace=wrap;html=1;aspect=fixed;fillColor=#FFF2CC;strokeColor=#000000;strokeWidth=2;" vertex="1" parent="1">
          <mxGeometry x="360" y="120" width="40" height="40" as="geometry" />
        </mxCell>
        <mxCell id="evfKNI3alcSAuEDwDKYb-5" value="2" style="ellipse;whiteSpace=wrap;html=1;aspect=fixed;fillColor=#FFF2CC;strokeColor=#000000;strokeWidth=2;" vertex="1" parent="1">
          <mxGeometry x="600" y="480" width="40" height="40" as="geometry" />
        </mxCell>
        <mxCell id="evfKNI3alcSAuEDwDKYb-7" value="17" style="ellipse;whiteSpace=wrap;html=1;aspect=fixed;fillColor=#FFF2CC;strokeColor=#000000;strokeWidth=2;" vertex="1" parent="1">
          <mxGeometry x="840" y="360" width="40" height="40" as="geometry" />
        </mxCell>
        <mxCell id="evfKNI3alcSAuEDwDKYb-8" value="4" style="ellipse;whiteSpace=wrap;html=1;aspect=fixed;fillColor=#FFF2CC;strokeColor=#000000;strokeWidth=2;" vertex="1" parent="1">
          <mxGeometry x="360" y="480" width="40" height="40" as="geometry" />
        </mxCell>
        <mxCell id="evfKNI3alcSAuEDwDKYb-9" value="9" style="ellipse;whiteSpace=wrap;html=1;aspect=fixed;fillColor=#FFF2CC;strokeColor=#000000;strokeWidth=2;" vertex="1" parent="1">
          <mxGeometry x="360" y="360" width="40" height="40" as="geometry" />
        </mxCell>
        <mxCell id="evfKNI3alcSAuEDwDKYb-10" value="20" style="ellipse;whiteSpace=wrap;html=1;aspect=fixed;fillColor=#FFF2CC;strokeColor=#000000;strokeWidth=2;" vertex="1" parent="1">
          <mxGeometry x="480" y="360" width="40" height="40" as="geometry" />
        </mxCell>
        <mxCell id="evfKNI3alcSAuEDwDKYb-11" value="8" style="ellipse;whiteSpace=wrap;html=1;aspect=fixed;fillColor=#FFF2CC;strokeColor=#000000;strokeWidth=2;" vertex="1" parent="1">
          <mxGeometry x="720" y="240" width="40" height="40" as="geometry" />
        </mxCell>
        <mxCell id="evfKNI3alcSAuEDwDKYb-12" value="19" style="ellipse;whiteSpace=wrap;html=1;aspect=fixed;fillColor=#FFF2CC;strokeColor=#000000;strokeWidth=2;" vertex="1" parent="1">
          <mxGeometry x="600" y="360" width="40" height="40" as="geometry" />
        </mxCell>
        <mxCell id="evfKNI3alcSAuEDwDKYb-13" value="3" style="ellipse;whiteSpace=wrap;html=1;aspect=fixed;fillColor=#FFF2CC;strokeColor=#000000;strokeWidth=2;" vertex="1" parent="1">
          <mxGeometry x="840" y="480" width="40" height="40" as="geometry" />
        </mxCell>
        <mxCell id="evfKNI3alcSAuEDwDKYb-14" value="6" style="ellipse;whiteSpace=wrap;html=1;aspect=fixed;fillColor=#FFF2CC;strokeColor=#000000;strokeWidth=2;" vertex="1" parent="1">
          <mxGeometry x="720" y="120" width="40" height="40" as="geometry" />
        </mxCell>
        <mxCell id="evfKNI3alcSAuEDwDKYb-15" value="15" style="ellipse;whiteSpace=wrap;html=1;aspect=fixed;fillColor=#FFF2CC;strokeColor=#000000;strokeWidth=2;" vertex="1" parent="1">
          <mxGeometry x="720" y="360" width="40" height="40" as="geometry" />
        </mxCell>
        <mxCell id="evfKNI3alcSAuEDwDKYb-16" value="16" style="ellipse;whiteSpace=wrap;html=1;aspect=fixed;fillColor=#FFF2CC;strokeColor=#000000;strokeWidth=2;" vertex="1" parent="1">
          <mxGeometry x="480" y="120" width="40" height="40" as="geometry" />
        </mxCell>
        <mxCell id="evfKNI3alcSAuEDwDKYb-17" value="18" style="ellipse;whiteSpace=wrap;html=1;aspect=fixed;fillColor=#FFF2CC;strokeColor=#000000;strokeWidth=2;" vertex="1" parent="1">
          <mxGeometry x="840" y="240" width="40" height="40" as="geometry" />
        </mxCell>
        <mxCell id="evfKNI3alcSAuEDwDKYb-18" value="12" style="ellipse;whiteSpace=wrap;html=1;aspect=fixed;fillColor=#FFF2CC;strokeColor=#000000;strokeWidth=2;" vertex="1" parent="1">
          <mxGeometry x="240" y="480" width="40" height="40" as="geometry" />
        </mxCell>
        <mxCell id="evfKNI3alcSAuEDwDKYb-19" value="" style="ellipse;whiteSpace=wrap;html=1;aspect=fixed;fillColor=#FFF2CC;strokeColor=#000000;strokeWidth=2;" vertex="1" parent="1">
          <mxGeometry x="1210" y="380" width="40" height="40" as="geometry" />
        </mxCell>
        <mxCell id="evfKNI3alcSAuEDwDKYb-20" value="7" style="ellipse;whiteSpace=wrap;html=1;aspect=fixed;fillColor=#FFF2CC;strokeColor=#000000;strokeWidth=2;" vertex="1" parent="1">
          <mxGeometry x="240" y="360" width="40" height="40" as="geometry" />
        </mxCell>
        <mxCell id="evfKNI3alcSAuEDwDKYb-21" value="10" style="ellipse;whiteSpace=wrap;html=1;aspect=fixed;fillColor=#FFF2CC;strokeColor=#000000;strokeWidth=2;" vertex="1" parent="1">
          <mxGeometry x="600" width="40" height="40" as="geometry" />
        </mxCell>
        <mxCell id="evfKNI3alcSAuEDwDKYb-22" value="14" style="ellipse;whiteSpace=wrap;html=1;aspect=fixed;fillColor=#FFF2CC;strokeColor=#000000;strokeWidth=2;" vertex="1" parent="1">
          <mxGeometry x="480" y="480" width="40" height="40" as="geometry" />
        </mxCell>
        <mxCell id="evfKNI3alcSAuEDwDKYb-24" value="" style="endArrow=none;html=1;rounded=0;exitX=1;exitY=0.5;exitDx=0;exitDy=0;entryX=0;entryY=0.5;entryDx=0;entryDy=0;" edge="1" parent="1" source="evfKNI3alcSAuEDwDKYb-2" target="evfKNI3alcSAuEDwDKYb-11">
          <mxGeometry width="50" height="50" relative="1" as="geometry">
            <mxPoint x="760" y="260" as="sourcePoint" />
            <mxPoint x="810" y="210" as="targetPoint" />
          </mxGeometry>
        </mxCell>
        <mxCell id="evfKNI3alcSAuEDwDKYb-25" style="edgeStyle=orthogonalEdgeStyle;rounded=0;orthogonalLoop=1;jettySize=auto;html=1;exitX=1;exitY=0.5;exitDx=0;exitDy=0;entryX=0;entryY=0.5;entryDx=0;entryDy=0;endArrow=none;endFill=0;" edge="1" parent="1" source="evfKNI3alcSAuEDwDKYb-1" target="evfKNI3alcSAuEDwDKYb-2">
          <mxGeometry relative="1" as="geometry" />
        </mxCell>
        <mxCell id="evfKNI3alcSAuEDwDKYb-26" value="" style="endArrow=none;html=1;rounded=0;exitX=0.5;exitY=1;exitDx=0;exitDy=0;" edge="1" parent="1" source="evfKNI3alcSAuEDwDKYb-1" target="evfKNI3alcSAuEDwDKYb-10">
          <mxGeometry width="50" height="50" relative="1" as="geometry">
            <mxPoint x="520" y="340" as="sourcePoint" />
            <mxPoint x="640" y="340" as="targetPoint" />
          </mxGeometry>
        </mxCell>
        <mxCell id="evfKNI3alcSAuEDwDKYb-27" value="" style="endArrow=none;html=1;rounded=0;exitX=0;exitY=0.5;exitDx=0;exitDy=0;entryX=1;entryY=0.5;entryDx=0;entryDy=0;" edge="1" parent="1" source="evfKNI3alcSAuEDwDKYb-10" target="evfKNI3alcSAuEDwDKYb-9">
          <mxGeometry width="50" height="50" relative="1" as="geometry">
            <mxPoint x="550" y="390" as="sourcePoint" />
            <mxPoint x="550" y="470" as="targetPoint" />
          </mxGeometry>
        </mxCell>
        <mxCell id="evfKNI3alcSAuEDwDKYb-28" value="" style="endArrow=none;html=1;rounded=0;exitX=0.5;exitY=1;exitDx=0;exitDy=0;entryX=0.5;entryY=0;entryDx=0;entryDy=0;" edge="1" parent="1" source="evfKNI3alcSAuEDwDKYb-7" target="evfKNI3alcSAuEDwDKYb-13">
          <mxGeometry width="50" height="50" relative="1" as="geometry">
            <mxPoint x="840" y="170" as="sourcePoint" />
            <mxPoint x="880" y="410" as="targetPoint" />
          </mxGeometry>
        </mxCell>
        <mxCell id="evfKNI3alcSAuEDwDKYb-29" value="" style="endArrow=none;html=1;rounded=0;exitX=0;exitY=0.5;exitDx=0;exitDy=0;entryX=1;entryY=0.5;entryDx=0;entryDy=0;" edge="1" parent="1" source="evfKNI3alcSAuEDwDKYb-15" target="evfKNI3alcSAuEDwDKYb-12">
          <mxGeometry width="50" height="50" relative="1" as="geometry">
            <mxPoint x="590" y="400" as="sourcePoint" />
            <mxPoint x="740" y="470" as="targetPoint" />
          </mxGeometry>
        </mxCell>
        <mxCell id="evfKNI3alcSAuEDwDKYb-30" value="" style="endArrow=none;html=1;rounded=0;exitX=0;exitY=0.5;exitDx=0;exitDy=0;entryX=1;entryY=0.5;entryDx=0;entryDy=0;" edge="1" parent="1" source="evfKNI3alcSAuEDwDKYb-16" target="evfKNI3alcSAuEDwDKYb-4">
          <mxGeometry width="50" height="50" relative="1" as="geometry">
            <mxPoint x="670" y="420" as="sourcePoint" />
            <mxPoint x="670" y="500" as="targetPoint" />
          </mxGeometry>
        </mxCell>
        <mxCell id="evfKNI3alcSAuEDwDKYb-31" value="" style="endArrow=none;html=1;rounded=0;exitX=1;exitY=0.5;exitDx=0;exitDy=0;entryX=0;entryY=0.5;entryDx=0;entryDy=0;" edge="1" parent="1" source="evfKNI3alcSAuEDwDKYb-3" target="evfKNI3alcSAuEDwDKYb-14">
          <mxGeometry width="50" height="50" relative="1" as="geometry">
            <mxPoint x="970" y="290" as="sourcePoint" />
            <mxPoint x="1040" y="290" as="targetPoint" />
          </mxGeometry>
        </mxCell>
        <mxCell id="evfKNI3alcSAuEDwDKYb-32" value="" style="endArrow=none;html=1;rounded=0;exitX=0.5;exitY=1;exitDx=0;exitDy=0;entryX=0.5;entryY=0;entryDx=0;entryDy=0;" edge="1" parent="1" source="evfKNI3alcSAuEDwDKYb-16" target="evfKNI3alcSAuEDwDKYb-1">
          <mxGeometry width="50" height="50" relative="1" as="geometry">
            <mxPoint x="500" y="200" as="sourcePoint" />
            <mxPoint x="580" y="200" as="targetPoint" />
          </mxGeometry>
        </mxCell>
        <mxCell id="evfKNI3alcSAuEDwDKYb-33" value="" style="endArrow=none;html=1;rounded=0;entryX=0.5;entryY=0;entryDx=0;entryDy=0;exitX=0.5;exitY=1;exitDx=0;exitDy=0;" edge="1" parent="1" source="evfKNI3alcSAuEDwDKYb-12" target="evfKNI3alcSAuEDwDKYb-5">
          <mxGeometry width="50" height="50" relative="1" as="geometry">
            <mxPoint x="680" y="440" as="sourcePoint" />
            <mxPoint x="740" y="555" as="targetPoint" />
          </mxGeometry>
        </mxCell>
        <mxCell id="evfKNI3alcSAuEDwDKYb-35" value="" style="endArrow=none;html=1;rounded=0;exitX=1;exitY=0.5;exitDx=0;exitDy=0;entryX=0;entryY=0.5;entryDx=0;entryDy=0;" edge="1" parent="1" source="evfKNI3alcSAuEDwDKYb-8" target="evfKNI3alcSAuEDwDKYb-22">
          <mxGeometry width="50" height="50" relative="1" as="geometry">
            <mxPoint x="420" y="520" as="sourcePoint" />
            <mxPoint x="470" y="520" as="targetPoint" />
          </mxGeometry>
        </mxCell>
        <mxCell id="evfKNI3alcSAuEDwDKYb-36" value="" style="endArrow=none;html=1;rounded=0;exitX=1;exitY=0.5;exitDx=0;exitDy=0;entryX=0;entryY=0.5;entryDx=0;entryDy=0;" edge="1" parent="1" source="evfKNI3alcSAuEDwDKYb-11" target="evfKNI3alcSAuEDwDKYb-17">
          <mxGeometry width="50" height="50" relative="1" as="geometry">
            <mxPoint x="650" y="270" as="sourcePoint" />
            <mxPoint x="770" y="270" as="targetPoint" />
          </mxGeometry>
        </mxCell>
        <mxCell id="evfKNI3alcSAuEDwDKYb-37" value="" style="endArrow=none;html=1;rounded=0;exitX=0.5;exitY=1;exitDx=0;exitDy=0;entryX=0.5;entryY=0;entryDx=0;entryDy=0;" edge="1" parent="1" source="evfKNI3alcSAuEDwDKYb-3" target="evfKNI3alcSAuEDwDKYb-2">
          <mxGeometry width="50" height="50" relative="1" as="geometry">
            <mxPoint x="660" y="210" as="sourcePoint" />
            <mxPoint x="730" y="170" as="targetPoint" />
          </mxGeometry>
        </mxCell>
        <mxCell id="evfKNI3alcSAuEDwDKYb-38" value="" style="endArrow=none;html=1;rounded=0;exitX=0.5;exitY=0;exitDx=0;exitDy=0;entryX=0.5;entryY=1;entryDx=0;entryDy=0;" edge="1" parent="1" source="evfKNI3alcSAuEDwDKYb-3" target="evfKNI3alcSAuEDwDKYb-21">
          <mxGeometry width="50" height="50" relative="1" as="geometry">
            <mxPoint x="630" y="170" as="sourcePoint" />
            <mxPoint x="620" y="80" as="targetPoint" />
          </mxGeometry>
        </mxCell>
        <mxCell id="evfKNI3alcSAuEDwDKYb-39" value="" style="endArrow=none;html=1;rounded=0;exitX=0.5;exitY=1;exitDx=0;exitDy=0;entryX=0.5;entryY=0;entryDx=0;entryDy=0;" edge="1" parent="1" source="evfKNI3alcSAuEDwDKYb-17" target="evfKNI3alcSAuEDwDKYb-7">
          <mxGeometry width="50" height="50" relative="1" as="geometry">
            <mxPoint x="910" y="259.65999999999997" as="sourcePoint" />
            <mxPoint x="950" y="260" as="targetPoint" />
          </mxGeometry>
        </mxCell>
        <mxCell id="evfKNI3alcSAuEDwDKYb-40" value="" style="endArrow=none;html=1;rounded=0;exitX=1;exitY=0.5;exitDx=0;exitDy=0;entryX=0;entryY=0.5;entryDx=0;entryDy=0;" edge="1" parent="1" source="evfKNI3alcSAuEDwDKYb-18" target="evfKNI3alcSAuEDwDKYb-8">
          <mxGeometry width="50" height="50" relative="1" as="geometry">
            <mxPoint x="330" y="590" as="sourcePoint" />
            <mxPoint x="390" y="590" as="targetPoint" />
          </mxGeometry>
        </mxCell>
        <mxCell id="evfKNI3alcSAuEDwDKYb-41" value="" style="endArrow=none;html=1;rounded=0;entryX=0;entryY=0.5;entryDx=0;entryDy=0;exitX=1;exitY=0.5;exitDx=0;exitDy=0;" edge="1" parent="1" source="evfKNI3alcSAuEDwDKYb-20" target="evfKNI3alcSAuEDwDKYb-9">
          <mxGeometry width="50" height="50" relative="1" as="geometry">
            <mxPoint x="290" y="380" as="sourcePoint" />
            <mxPoint x="510" y="490" as="targetPoint" />
          </mxGeometry>
        </mxCell>
        <mxCell id="evfKNI3alcSAuEDwDKYb-42" value="" style="endArrow=none;html=1;rounded=0;exitX=0.5;exitY=1;exitDx=0;exitDy=0;entryX=0.5;entryY=0;entryDx=0;entryDy=0;" edge="1" parent="1" source="evfKNI3alcSAuEDwDKYb-2" target="evfKNI3alcSAuEDwDKYb-12">
          <mxGeometry width="50" height="50" relative="1" as="geometry">
            <mxPoint x="570" y="510" as="sourcePoint" />
            <mxPoint x="490" y="510" as="targetPoint" />
          </mxGeometry>
        </mxCell>
        <mxCell id="evfKNI3alcSAuEDwDKYb-43" value="" style="ellipse;whiteSpace=wrap;html=1;aspect=fixed;fillColor=#FFF2CC;strokeColor=#000000;strokeWidth=2;" vertex="1" parent="1">
          <mxGeometry x="1180" y="-140" width="40" height="40" as="geometry" />
        </mxCell>
        <mxCell id="evfKNI3alcSAuEDwDKYb-45" value="" style="endArrow=none;html=1;rounded=0;exitX=0.5;exitY=1;exitDx=0;exitDy=0;entryX=0.5;entryY=0;entryDx=0;entryDy=0;" edge="1" parent="1" source="evfKNI3alcSAuEDwDKYb-9" target="evfKNI3alcSAuEDwDKYb-8">
          <mxGeometry width="50" height="50" relative="1" as="geometry">
            <mxPoint x="390" y="580" as="sourcePoint" />
            <mxPoint x="390" y="530" as="targetPoint" />
          </mxGeometry>
        </mxCell>
        <mxCell id="evfKNI3alcSAuEDwDKYb-47" value="11.45" style="text;html=1;align=center;verticalAlign=middle;resizable=0;points=[];autosize=1;strokeColor=none;fillColor=none;" vertex="1" parent="1">
          <mxGeometry x="535" y="237" width="50" height="30" as="geometry" />
        </mxCell>
        <mxCell id="evfKNI3alcSAuEDwDKYb-48" value="92.88" style="text;html=1;align=center;verticalAlign=middle;resizable=0;points=[];autosize=1;strokeColor=none;fillColor=none;" vertex="1" parent="1">
          <mxGeometry x="657" y="237" width="50" height="30" as="geometry" />
        </mxCell>
        <mxCell id="evfKNI3alcSAuEDwDKYb-49" value="141.77" style="text;html=1;align=center;verticalAlign=middle;resizable=0;points=[];autosize=1;strokeColor=none;fillColor=none;" vertex="1" parent="1">
          <mxGeometry x="444" y="305" width="60" height="30" as="geometry" />
        </mxCell>
        <mxCell id="evfKNI3alcSAuEDwDKYb-50" value="206.5" style="text;html=1;align=center;verticalAlign=middle;resizable=0;points=[];autosize=1;strokeColor=none;fillColor=none;" vertex="1" parent="1">
          <mxGeometry x="417" y="356" width="50" height="30" as="geometry" />
        </mxCell>
      </root>
    </mxGraphModel>
  </diagram>
</mxfile>
